REM DIRINDEX 1\2,1\3
REM DIRNAME cjc052,folder01,folder02
TITLE ""
FILE "Disk2Track59.mp3" MP3
  TRACK 01 AUDIO
    TITLE "2:cjc052_0950"
    INDEX 01 00:00:00
  TRACK 02 AUDIO
    TITLE "2:cjc052_0951"
    INDEX 01 00:04:31
  TRACK 03 AUDIO
    TITLE "2:cjc052_0952"
    INDEX 01 00:13:39
  TRACK 04 AUDIO
    TITLE "2:cjc052_0953"
    INDEX 01 00:24:12
  TRACK 05 AUDIO
    TITLE "2:cjc052_0954"
    INDEX 01 00:37:61
  TRACK 06 AUDIO
    TITLE "0:"
    INDEX 01 00:55:24
